<!DOCTYPE svg PUBLIC "-//W3C//DTD SVG 1.1//EN" "http://www.w3.org/Graphics/SVG/1.1/DTD/svg11.dtd">

<!-- Uploaded to: SVG Repo, www.svgrepo.com, Transformed by: SVG Repo Mixer Tools -->
<svg width="20px" height="20px" viewBox="0 -2 40 40" xmlns="http://www.w3.org/2000/svg" fill="#1E8EB6">

<g id="SVGRepo_bgCarrier" stroke-width="0"/>

<g id="SVGRepo_tracerCarrier" stroke-linecap="round" stroke-linejoin="round"/>

<g id="SVGRepo_iconCarrier"> <g id="Group_63" data-name="Group 63" transform="translate(-59 -212)"> <path id="_отопление" d="M69,239a3,3,0,0,1,0-6v-6a9,9,0,0,0,0,18v-6Zm20-12a3,3,0,0,0,0-6v-6a9,9,0,0,1,0,18v-6Zm-20,6H89v-6H69Zm0,12H89v-6H69Zm0-30H89v6H69Zm-4,7a1,1,0,0,0,1,1h2a1,1,0,0,0,1-1v-8a1,1,0,0,0-1-1H66a1,1,0,0,0-1,1Zm24,24a1,1,0,0,0,1,1h2a1,1,0,0,0,1-1v-8a1,1,0,0,0-1-1H90a1,1,0,0,0-1,1Z" fill="none" stroke="#1E8EB6" stroke-width="2"/> </g> </g>

</svg>